<svg width="36" height="36" viewBox="0 0 36 36" fill="none" xmlns="http://www.w3.org/2000/svg">
<circle cx="18" cy="18" r="18" fill="#3574F0"/>
<path d="M23.0729 21.1097C23.0729 19.3976 22.0697 17.9188 20.6184 17.23V14.6865C20.6184 14.4548 20.5371 14.2308 20.3868 14.0544L18.0488 11.2823C17.9506 11.1657 17.811 11.1074 17.6729 11.1074C17.5349 11.1074 17.3953 11.1657 17.2971 11.2823L14.9591 14.0544C14.8098 14.2312 14.7278 14.4551 14.7275 14.6865V17.23C13.2762 17.9188 12.2729 19.3976 12.2729 21.1097H14.6738C14.6385 21.2201 14.6201 21.3398 14.6201 21.4748C14.6201 21.8138 14.7367 22.1452 14.9484 22.4075C15.1212 22.6221 15.3501 22.7846 15.6096 22.877C15.964 23.7054 16.7694 24.2392 17.6729 24.2392C18.1194 24.2392 18.552 24.1073 18.9217 23.8588C19.2837 23.6164 19.5645 23.2774 19.7348 22.877C19.9942 22.7851 20.2231 22.6232 20.396 22.4091C20.6079 22.1444 20.7237 21.8155 20.7243 21.4763C20.7243 21.3475 20.7074 21.2248 20.6767 21.1112H23.0729V21.1097ZM21.5128 19.3516C21.657 19.5756 21.7736 19.8165 21.8579 20.0665H20.557V18.3898C20.9398 18.6395 21.2655 18.9673 21.5128 19.3516ZM15.7707 17.23V14.7095L17.6729 12.4544L19.5752 14.7095V20.0665H15.7707V17.23ZM13.4879 20.0665C13.5723 19.8165 13.6889 19.5756 13.8331 19.3516C14.0832 18.965 14.4084 18.6383 14.7889 18.3898V20.0665H13.4879ZM19.454 21.8491C19.3743 21.8951 19.2822 21.9136 19.1917 21.9013L18.8926 21.8645L18.8496 22.1621C18.7668 22.7435 18.2605 23.1823 17.6729 23.1823C17.0854 23.1823 16.5791 22.7435 16.4963 22.1621L16.4533 21.8629L16.1542 21.9013C16.0633 21.9121 15.9712 21.8933 15.8919 21.8476C15.7584 21.7709 15.6756 21.6282 15.6756 21.4733C15.6756 21.3107 15.7661 21.1757 15.8995 21.1082H19.4479C19.5829 21.1772 19.6719 21.3122 19.6719 21.4733C19.6703 21.6298 19.5875 21.774 19.454 21.8491ZM16.9366 15.9551C16.9366 16.1504 17.0142 16.3377 17.1523 16.4758C17.2904 16.6139 17.4777 16.6915 17.6729 16.6915C17.8682 16.6915 18.0555 16.6139 18.1936 16.4758C18.3317 16.3377 18.4093 16.1504 18.4093 15.9551C18.4093 15.7599 18.3317 15.5726 18.1936 15.4345C18.0555 15.2964 17.8682 15.2188 17.6729 15.2188C17.4777 15.2188 17.2904 15.2964 17.1523 15.4345C17.0142 15.5726 16.9366 15.7599 16.9366 15.9551Z" fill="white"/>
</svg>

