<svg width="1129" height="663" viewBox="0 0 1129 663" fill="none" xmlns="http://www.w3.org/2000/svg">
<g clip-path="url(#clip0_12_2)">
<path d="M321 642C498.283 642 642 498.283 642 321C642 143.717 498.283 0 321 0C143.717 0 0 143.717 0 321C0 498.283 143.717 642 321 642Z" fill="#F2F2F2"/>
<path d="M559 663C842.874 663 1073 650.688 1073 635.5C1073 620.312 842.874 608 559 608C275.126 608 45 620.312 45 635.5C45 650.688 275.126 663 559 663Z" fill="#3F3D56"/>
<path opacity="0.2" d="M558 649C812.051 649 1018 639.15 1018 627C1018 614.85 812.051 605 558 605C303.949 605 98 614.85 98 627C98 639.15 303.949 649 558 649Z" fill="black"/>
<path d="M971 152.5H131V202.5H971V152.5Z" fill="#3F3D56"/>
<path d="M131 608.83C131 611.676 131.561 614.494 132.65 617.123C133.739 619.752 135.335 622.141 137.347 624.153C139.359 626.165 141.748 627.761 144.377 628.85C147.006 629.939 149.824 630.5 152.67 630.5H949.33C952.176 630.5 954.994 629.939 957.623 628.85C960.252 627.761 962.641 626.165 964.653 624.153C966.665 622.141 968.261 619.752 969.35 617.123C970.439 614.494 971 611.676 971 608.83V177.5H131V608.83Z" fill="#3F3D56"/>
<path d="M949.33 117.5H152.67C149.824 117.5 147.006 118.061 144.377 119.15C141.748 120.239 139.359 121.835 137.347 123.847C135.335 125.859 133.739 128.248 132.65 130.877C131.561 133.506 131 136.324 131 139.17V177.5H971V139.17C971 136.324 970.439 133.506 969.35 130.877C968.261 128.248 966.665 125.859 964.653 123.847C962.641 121.835 960.252 120.239 957.623 119.15C954.994 118.061 952.176 117.5 949.33 117.5Z" fill="#3F3D56"/>
<path opacity="0.2" d="M949.33 117.5H152.67C149.824 117.5 147.006 118.061 144.377 119.15C141.748 120.239 139.359 121.835 137.347 123.847C135.335 125.859 133.739 128.248 132.65 130.877C131.561 133.506 131 136.324 131 139.17V177.5H971V139.17C971 136.324 970.439 133.506 969.35 130.877C968.261 128.248 966.665 125.859 964.653 123.847C962.641 121.835 960.252 120.239 957.623 119.15C954.994 118.061 952.176 117.5 949.33 117.5Z" fill="black"/>
<path d="M181 160.5C188.18 160.5 194 154.68 194 147.5C194 140.32 188.18 134.5 181 134.5C173.82 134.5 168 140.32 168 147.5C168 154.68 173.82 160.5 181 160.5Z" fill="#3F3D56"/>
<path d="M217 160.5C224.18 160.5 230 154.68 230 147.5C230 140.32 224.18 134.5 217 134.5C209.82 134.5 204 140.32 204 147.5C204 154.68 209.82 160.5 217 160.5Z" fill="#3F3D56"/>
<path d="M253 160.5C260.18 160.5 266 154.68 266 147.5C266 140.32 260.18 134.5 253 134.5C245.82 134.5 240 140.32 240 147.5C240 154.68 245.82 160.5 253 160.5Z" fill="#3F3D56"/>
<path d="M499.665 213.5H173.335C170.389 213.5 168 215.889 168 218.835V594.165C168 597.111 170.389 599.5 173.335 599.5H499.665C502.611 599.5 505 597.111 505 594.165V218.835C505 215.889 502.611 213.5 499.665 213.5Z" fill="#606060"/>
<path d="M881.524 272.5H608.476C605.452 272.5 603 274.952 603 277.976V289.024C603 292.048 605.452 294.5 608.476 294.5H881.524C884.548 294.5 887 292.048 887 289.024V277.976C887 274.952 884.548 272.5 881.524 272.5Z" fill="#3574F0"/>
<path d="M947.524 352.5H542.476C539.452 352.5 537 354.952 537 357.976V362.024C537 365.048 539.452 367.5 542.476 367.5H947.524C950.548 367.5 953 365.048 953 362.024V357.976C953 354.952 950.548 352.5 947.524 352.5Z" fill="#2C63D0"/>
<path d="M947.524 396.5H542.476C539.452 396.5 537 398.952 537 401.976V406.024C537 409.048 539.452 411.5 542.476 411.5H947.524C950.548 411.5 953 409.048 953 406.024V401.976C953 398.952 950.548 396.5 947.524 396.5Z" fill="#2C63D0"/>
<path d="M947.524 440.5H542.476C539.452 440.5 537 442.952 537 445.976V450.024C537 453.048 539.452 455.5 542.476 455.5H947.524C950.548 455.5 953 453.048 953 450.024V445.976C953 442.952 950.548 440.5 947.524 440.5Z" fill="#2C63D0"/>
<path d="M947.524 484.5H542.476C539.452 484.5 537 486.952 537 489.976V494.024C537 497.048 539.452 499.5 542.476 499.5H947.524C950.548 499.5 953 497.048 953 494.024V489.976C953 486.952 950.548 484.5 947.524 484.5Z" fill="#2C63D0"/>
<path d="M945.972 552.5H872.028C868.146 552.5 865 555.646 865 559.528V571.472C865 575.354 868.146 578.5 872.028 578.5H945.972C949.854 578.5 953 575.354 953 571.472V559.528C953 555.646 949.854 552.5 945.972 552.5Z" fill="#2C63D0"/>
<path d="M1053.1 506.116C1055.76 501.472 1057.14 496.202 1057.09 490.85C1057.09 477.053 1048.54 465.869 1038 465.869C1027.46 465.869 1018.92 477.053 1018.92 490.85C1018.87 496.202 1020.24 501.472 1022.9 506.116C1020.29 510.78 1018.92 516.036 1018.92 521.382C1018.92 526.728 1020.29 531.984 1022.9 536.648C1020.29 541.312 1018.92 546.569 1018.92 551.914C1018.92 557.26 1020.29 562.516 1022.9 567.18C1020.29 571.844 1018.92 577.101 1018.92 582.446C1018.92 587.792 1020.29 593.048 1022.9 597.712C1020.24 602.356 1018.87 607.626 1018.92 612.978C1018.92 626.775 1027.46 637.959 1038 637.959C1048.54 637.959 1057.09 626.775 1057.09 612.978C1057.14 607.626 1055.76 602.356 1053.1 597.712C1055.71 593.048 1057.09 587.792 1057.09 582.446C1057.09 577.101 1055.71 571.844 1053.1 567.18C1055.71 562.516 1057.09 557.26 1057.09 551.914C1057.09 546.569 1055.71 541.312 1053.1 536.648C1055.71 531.984 1057.09 526.728 1057.09 521.382C1057.09 516.036 1055.71 510.78 1053.1 506.116Z" fill="#3F3D56"/>
<path d="M1038 485.299C1048.54 485.299 1057.09 474.114 1057.09 460.318C1057.09 446.521 1048.54 435.337 1038 435.337C1027.46 435.337 1018.92 446.521 1018.92 460.318C1018.92 474.114 1027.46 485.299 1038 485.299Z" fill="#3F3D56"/>
<path d="M1038 454.767C1048.54 454.767 1057.09 443.582 1057.09 429.786C1057.09 415.989 1048.54 404.805 1038 404.805C1027.46 404.805 1018.92 415.989 1018.92 429.786C1018.92 443.582 1027.46 454.767 1038 454.767Z" fill="#3F3D56"/>
<path fill-rule="evenodd" clip-rule="evenodd" d="M1109.44 220.845C1112.05 217.526 1114.42 214.03 1116.55 210.384L1066.4 202.149L1120.63 202.552C1125.84 191.234 1128.67 178.973 1128.97 166.519C1129.27 154.066 1127.03 141.682 1122.38 130.126L1049.62 167.868L1116.72 118.547C1110.43 107.684 1101.98 98.2325 1091.88 90.7803C1081.78 83.328 1070.26 78.035 1058.03 75.231C1045.79 72.4269 1033.11 72.1718 1020.78 74.4817C1008.44 76.7915 996.713 81.6168 986.323 88.6569C975.933 95.6969 967.105 104.801 960.387 115.402C953.669 126.003 949.206 137.874 947.276 150.275C945.346 162.676 945.99 175.341 949.168 187.482C952.347 199.624 957.991 210.98 965.75 220.845C961.686 226.011 958.191 231.599 955.325 237.514L1020.41 271.329L951.011 248.037C946.138 262.442 944.934 277.835 947.508 292.822C950.081 307.81 956.351 321.919 965.75 333.874C955.145 347.356 948.548 363.551 946.713 380.606C944.878 397.662 947.879 414.889 955.374 430.319C962.868 445.749 974.554 458.758 989.093 467.86C1003.63 476.962 1020.44 481.789 1037.59 481.789C1054.75 481.789 1071.56 476.962 1086.1 467.86C1100.63 458.758 1112.32 445.749 1119.81 430.319C1127.31 414.889 1130.31 397.662 1128.48 380.606C1126.64 363.551 1120.04 347.356 1109.44 333.874C1122.11 317.761 1129 297.858 1129 277.359C1129 256.861 1122.11 236.957 1109.44 220.845Z" fill="#3574F0"/>
<path opacity="0.1" d="M946.188 277.359C946.157 297.863 953.05 317.777 965.75 333.873C955.145 347.356 948.548 363.551 946.713 380.606C944.878 397.662 947.879 414.889 955.374 430.319C962.868 445.749 974.554 458.758 989.093 467.86C1003.63 476.962 1020.44 481.789 1037.59 481.789C1054.75 481.789 1071.56 476.962 1086.1 467.86C1100.63 458.758 1112.32 445.749 1119.81 430.319C1127.31 414.889 1130.31 397.662 1128.48 380.606C1126.64 363.551 1120.04 347.356 1109.44 333.873C1121.69 318.321 946.188 267.1 946.188 277.359Z" fill="black"/>
<g clip-path="url(#clip1_12_2)">
<path d="M337 530C406.588 530 463 473.588 463 404C463 334.412 406.588 278 337 278C267.412 278 211 334.412 211 404C211 473.588 267.412 530 337 530Z" fill="#3574F0"/>
<path d="M372.51 425.768C372.51 413.783 365.488 403.432 355.329 398.61V380.806C355.329 379.184 354.76 377.616 353.708 376.381L337.342 356.976C336.654 356.16 335.677 355.752 334.71 355.752C333.744 355.752 332.767 356.16 332.08 356.976L315.714 376.381C314.669 377.618 314.095 379.186 314.092 380.806V398.61C303.933 403.432 296.91 413.783 296.91 425.768H313.717C313.469 426.541 313.341 427.379 313.341 428.324C313.341 430.697 314.157 433.016 315.639 434.853C316.848 436.355 318.451 437.492 320.267 438.139C322.748 443.938 328.386 447.674 334.71 447.674C337.836 447.674 340.864 446.751 343.452 445.012C345.986 443.315 347.951 440.942 349.144 438.139C350.959 437.496 352.562 436.362 353.772 434.864C355.255 433.011 356.066 430.709 356.07 428.334C356.07 427.433 355.952 426.574 355.737 425.778H372.51V425.768ZM361.59 413.461C362.599 415.029 363.415 416.716 364.005 418.466H354.899V406.729C357.579 408.477 359.858 410.771 361.59 413.461ZM321.395 398.61V380.967L334.71 365.181L348.026 380.967V418.466H321.395V398.61ZM305.415 418.466C306.006 416.716 306.822 415.029 307.832 413.461C309.582 410.755 311.859 408.468 314.522 406.729V418.466H305.415ZM347.178 430.944C346.62 431.266 345.975 431.395 345.342 431.309L343.248 431.052L342.947 433.135C342.368 437.205 338.823 440.276 334.71 440.276C330.598 440.276 327.054 437.205 326.474 433.135L326.173 431.04L324.079 431.309C323.443 431.385 322.798 431.253 322.243 430.933C321.309 430.396 320.729 429.397 320.729 428.313C320.729 427.175 321.363 426.23 322.296 425.757H347.135C348.08 426.24 348.703 427.185 348.703 428.313C348.692 429.409 348.112 430.418 347.178 430.944ZM329.556 389.686C329.556 391.053 330.099 392.364 331.066 393.331C332.033 394.297 333.344 394.841 334.71 394.841C336.077 394.841 337.388 394.297 338.355 393.331C339.322 392.364 339.865 391.053 339.865 389.686C339.865 388.319 339.322 387.008 338.355 386.042C337.388 385.075 336.077 384.532 334.71 384.532C333.344 384.532 332.033 385.075 331.066 386.042C330.099 387.008 329.556 388.319 329.556 389.686Z" fill="white"/>
</g>
</g>
<defs>
<clipPath id="clip0_12_2">
<rect width="1129" height="663" fill="white"/>
</clipPath>
<clipPath id="clip1_12_2">
<rect width="252" height="252" fill="white" transform="translate(211 278)"/>
</clipPath>
</defs>
</svg>
