<svg width="1129" height="663" viewBox="0 0 1129 663" fill="none" xmlns="http://www.w3.org/2000/svg">
<g clip-path="url(#clip0_13_28)">
<mask id="mask0_13_28" style="mask-type:luminance" maskUnits="userSpaceOnUse" x="0" y="0" width="1129" height="663">
<path d="M0 0H1129V663H0V0Z" fill="white"/>
</mask>
<g mask="url(#mask0_13_28)">
<path d="M321 642C498.283 642 642 498.283 642 321C642 143.717 498.283 0 321 0C143.717 0 0 143.717 0 321C0 498.283 143.717 642 321 642Z" fill="#F2F2F2"/>
<path d="M559 663C842.874 663 1073 650.688 1073 635.5C1073 620.312 842.874 608 559 608C275.126 608 45 620.312 45 635.5C45 650.688 275.126 663 559 663Z" fill="#3F3D56"/>
<path opacity="0.2" d="M558 649C812.051 649 1018 639.15 1018 627C1018 614.85 812.051 605 558 605C303.949 605 98 614.85 98 627C98 639.15 303.949 649 558 649Z" fill="black"/>
<path d="M971 152.5H131V202.5H971V152.5Z" fill="#3F3D56"/>
<path d="M131 608.83C131 611.676 131.561 614.494 132.65 617.123C133.739 619.752 135.335 622.141 137.347 624.153C139.359 626.165 141.748 627.761 144.377 628.85C147.006 629.939 149.824 630.5 152.67 630.5H949.33C955.077 630.5 960.589 628.217 964.653 624.153C968.717 620.089 971 614.577 971 608.83V177.5H131V608.83ZM949.33 117.5H152.67C146.923 117.5 141.411 119.783 137.347 123.847C133.283 127.911 131 133.423 131 139.17V177.5H971V139.17C971 133.423 968.717 127.911 964.653 123.847C960.589 119.783 955.077 117.5 949.33 117.5Z" fill="#3F3D56"/>
<path opacity="0.2" d="M949.33 117.5H152.67C146.923 117.5 141.411 119.783 137.347 123.847C133.283 127.911 131 133.423 131 139.17V177.5H971V139.17C971 133.423 968.717 127.911 964.653 123.847C960.589 119.783 955.077 117.5 949.33 117.5Z" fill="black"/>
<path d="M181 160.5C188.18 160.5 194 154.68 194 147.5C194 140.32 188.18 134.5 181 134.5C173.82 134.5 168 140.32 168 147.5C168 154.68 173.82 160.5 181 160.5ZM217 160.5C224.18 160.5 230 154.68 230 147.5C230 140.32 224.18 134.5 217 134.5C209.82 134.5 204 140.32 204 147.5C204 154.68 209.82 160.5 217 160.5ZM253 160.5C260.18 160.5 266 154.68 266 147.5C266 140.32 260.18 134.5 253 134.5C245.82 134.5 240 140.32 240 147.5C240 154.68 245.82 160.5 253 160.5Z" fill="#3F3D56"/>
<path d="M499.665 213.5H173.335C171.92 213.5 170.563 214.062 169.563 215.063C168.562 216.063 168 217.42 168 218.835V594.165C168 595.58 168.562 596.937 169.563 597.937C170.563 598.938 171.92 599.5 173.335 599.5H499.665C501.08 599.5 502.437 598.938 503.437 597.937C504.438 596.937 505 595.58 505 594.165V218.835C505 217.42 504.438 216.063 503.437 215.063C502.437 214.062 501.08 213.5 499.665 213.5Z" fill="#606060"/>
<path d="M881.524 272.5H608.476C607.024 272.5 605.631 273.077 604.604 274.104C603.577 275.131 603 276.524 603 277.976V289.024C603 290.476 603.577 291.869 604.604 292.896C605.631 293.923 607.024 294.5 608.476 294.5H881.524C882.976 294.5 884.369 293.923 885.396 292.896C886.423 291.869 887 290.476 887 289.024V277.976C887 276.524 886.423 275.131 885.396 274.104C884.369 273.077 882.976 272.5 881.524 272.5Z" fill="#3574F0"/>
<path d="M947.524 352.5H542.476C541.024 352.5 539.631 353.077 538.604 354.104C537.577 355.131 537 356.524 537 357.976V362.024C537 363.476 537.577 364.869 538.604 365.896C539.631 366.923 541.024 367.5 542.476 367.5H947.524C948.976 367.5 950.369 366.923 951.396 365.896C952.423 364.869 953 363.476 953 362.024V357.976C953 356.524 952.423 355.131 951.396 354.104C950.369 353.077 948.976 352.5 947.524 352.5ZM947.524 396.5H542.476C541.024 396.5 539.631 397.077 538.604 398.104C537.577 399.131 537 400.524 537 401.976V406.024C537 407.476 537.577 408.869 538.604 409.896C539.631 410.923 541.024 411.5 542.476 411.5H947.524C948.976 411.5 950.369 410.923 951.396 409.896C952.423 408.869 953 407.476 953 406.024V401.976C953 400.524 952.423 399.131 951.396 398.104C950.369 397.077 948.976 396.5 947.524 396.5ZM947.524 440.5H542.476C541.024 440.5 539.631 441.077 538.604 442.104C537.577 443.131 537 444.524 537 445.976V450.024C537 451.476 537.577 452.869 538.604 453.896C539.631 454.923 541.024 455.5 542.476 455.5H947.524C948.976 455.5 950.369 454.923 951.396 453.896C952.423 452.869 953 451.476 953 450.024V445.976C953 444.524 952.423 443.131 951.396 442.104C950.369 441.077 948.976 440.5 947.524 440.5ZM947.524 484.5H542.476C541.024 484.5 539.631 485.077 538.604 486.104C537.577 487.131 537 488.524 537 489.976V494.024C537 495.476 537.577 496.869 538.604 497.896C539.631 498.923 541.024 499.5 542.476 499.5H947.524C948.976 499.5 950.369 498.923 951.396 497.896C952.423 496.869 953 495.476 953 494.024V489.976C953 488.524 952.423 487.131 951.396 486.104C950.369 485.077 948.976 484.5 947.524 484.5ZM945.972 552.5H872.028C871.105 552.5 870.191 552.682 869.338 553.035C868.486 553.388 867.711 553.906 867.058 554.558C866.406 555.211 865.888 555.986 865.535 556.838C865.182 557.691 865 558.605 865 559.528V571.472C865 572.395 865.182 573.309 865.535 574.162C865.888 575.014 866.406 575.789 867.058 576.442C867.711 577.094 868.486 577.612 869.338 577.965C870.191 578.318 871.105 578.5 872.028 578.5H945.972C946.895 578.5 947.809 578.318 948.662 577.965C949.514 577.612 950.289 577.094 950.942 576.442C951.594 575.789 952.112 575.014 952.465 574.162C952.818 573.309 953 572.395 953 571.472V559.528C953 558.605 952.818 557.691 952.465 556.838C952.112 555.986 951.594 555.211 950.942 554.558C950.289 553.906 949.514 553.388 948.662 553.035C947.809 552.682 946.895 552.5 945.972 552.5Z" fill="#2C63D0"/>
<path d="M1053.1 506.116C1055.76 501.472 1057.14 496.203 1057.09 490.85C1057.09 477.053 1048.54 465.869 1038 465.869C1027.46 465.869 1018.92 477.053 1018.92 490.85C1018.87 496.202 1020.24 501.471 1022.9 506.116C1020.29 510.781 1018.92 516.037 1018.92 521.382C1018.92 526.727 1020.29 531.983 1022.9 536.648C1020.29 541.313 1018.92 546.569 1018.92 551.914C1018.92 557.259 1020.29 562.515 1022.9 567.18C1020.29 571.845 1018.92 577.101 1018.92 582.446C1018.92 587.791 1020.29 593.047 1022.9 597.712C1020.24 602.357 1018.87 607.626 1018.92 612.978C1018.92 626.775 1027.46 637.959 1038 637.959C1048.54 637.959 1057.09 626.775 1057.09 612.978C1057.14 607.625 1055.76 602.356 1053.1 597.712C1055.71 593.048 1057.09 587.792 1057.09 582.446C1057.09 577.101 1055.71 571.844 1053.1 567.18C1055.71 562.516 1057.09 557.26 1057.09 551.914C1057.09 546.569 1055.71 541.312 1053.1 536.648C1055.71 531.984 1057.09 526.728 1057.09 521.382C1057.09 516.036 1055.71 510.78 1053.1 506.116Z" fill="#3F3D56"/>
<path d="M1038 485.299C1048.54 485.299 1057.09 474.114 1057.09 460.318C1057.09 446.522 1048.54 435.337 1038 435.337C1027.46 435.337 1018.92 446.521 1018.92 460.318C1018.92 474.114 1027.46 485.299 1038 485.299Z" fill="#3F3D56"/>
<path d="M1038 454.767C1048.54 454.767 1057.09 443.582 1057.09 429.786C1057.09 415.99 1048.54 404.805 1038 404.805C1027.46 404.805 1018.92 415.989 1018.92 429.786C1018.92 443.582 1027.46 454.767 1038 454.767Z" fill="#3F3D56"/>
<path fill-rule="evenodd" clip-rule="evenodd" d="M1109.44 220.845C1112.05 217.525 1114.42 214.03 1116.55 210.384L1066.4 202.149L1120.63 202.552C1125.84 191.235 1128.67 178.973 1128.97 166.519C1129.27 154.066 1127.03 141.683 1122.38 130.126L1049.62 167.868L1116.72 118.547C1110.43 107.685 1101.98 98.2341 1091.88 90.7819C1081.79 83.3297 1070.26 78.0362 1058.03 75.231C1039.6 71.0063 1020.31 72.601 1002.82 79.7955C985.336 86.9899 970.51 99.43 960.387 115.402C950.265 131.374 945.346 150.092 946.306 168.976C947.267 187.861 954.06 205.983 965.75 220.845C961.686 226.011 958.191 231.599 955.325 237.514L1020.41 271.329L951.011 248.037C946.138 262.442 944.934 277.835 947.507 292.823C950.081 307.81 956.351 321.92 965.75 333.874C957.819 343.957 952.099 355.596 948.962 368.035C945.825 380.474 945.342 393.434 947.544 406.072C949.746 418.71 954.583 430.743 961.742 441.389C968.9 452.034 978.219 461.053 989.093 467.86C1003.63 476.961 1020.44 481.788 1037.6 481.788C1054.75 481.788 1071.56 476.961 1086.1 467.86C1100.64 458.757 1112.32 445.748 1119.81 430.319C1127.31 414.89 1130.31 397.662 1128.48 380.606C1126.64 363.552 1120.04 347.359 1109.44 333.874C1122.11 317.761 1129 297.857 1129 277.359C1129 256.862 1122.11 236.958 1109.44 220.845Z" fill="#3574F0"/>
<path opacity="0.1" d="M946.188 277.359C946.156 297.863 953.049 317.777 965.75 333.873C955.145 347.356 948.548 363.551 946.714 380.606C944.879 397.661 947.88 414.889 955.374 430.319C962.868 445.749 974.552 458.758 989.091 467.86C1003.63 476.962 1020.44 481.789 1037.59 481.789C1054.75 481.791 1071.56 476.964 1086.1 467.86C1100.64 458.757 1112.32 445.748 1119.81 430.319C1127.31 414.89 1130.31 397.662 1128.48 380.606C1126.64 363.552 1120.04 347.358 1109.44 333.873C1121.69 318.321 946.188 267.1 946.188 277.359Z" fill="black"/>
</g>
<mask id="mask1_13_28" style="mask-type:luminance" maskUnits="userSpaceOnUse" x="211" y="278" width="252" height="252">
<path d="M211 278H463V530H211V278Z" fill="white"/>
</mask>
<g mask="url(#mask1_13_28)">
<path d="M337 530C406.588 530 463 473.588 463 404C463 334.412 406.588 278 337 278C267.412 278 211 334.412 211 404C211 473.588 267.412 530 337 530Z" fill="#3574F0"/>
<path d="M372.51 425.768C372.51 413.783 365.488 403.432 355.329 398.61V380.806C355.329 379.184 354.76 377.616 353.708 376.381L337.342 356.976C337.019 356.592 336.617 356.283 336.162 356.072C335.707 355.86 335.212 355.751 334.71 355.752C334.209 355.752 333.714 355.861 333.259 356.072C332.805 356.284 332.402 356.592 332.08 356.976L315.714 376.381C314.669 377.619 314.095 379.186 314.092 380.806V398.61C303.933 403.432 296.91 413.783 296.91 425.768H313.717C313.469 426.541 313.341 427.379 313.341 428.324C313.341 430.697 314.157 433.016 315.639 434.853C316.849 436.355 318.45 437.492 320.267 438.139C321.471 440.972 323.483 443.387 326.052 445.083C328.62 446.779 331.632 447.68 334.71 447.674C337.836 447.674 340.864 446.751 343.452 445.012C345.978 443.324 347.956 440.935 349.144 438.139C350.959 437.496 352.561 436.362 353.772 434.864C355.256 433.01 356.066 430.708 356.07 428.334C356.07 427.433 355.952 426.574 355.737 425.778H372.51V425.768ZM361.59 413.461C362.598 415.024 363.409 416.705 364.005 418.466H354.899V406.729C357.579 408.476 359.859 410.771 361.59 413.461ZM321.395 398.61V380.967L334.71 365.181L348.026 380.967V418.466H321.395V398.61ZM305.415 418.466C306.013 416.705 306.824 415.024 307.832 413.461C309.565 410.773 311.844 408.479 314.522 406.729V418.466H305.415ZM347.178 430.944C346.623 431.265 345.978 431.394 345.342 431.309L343.248 431.052L342.947 433.135C342.368 437.205 338.823 440.276 334.71 440.276C330.598 440.276 327.054 437.205 326.474 433.135L326.173 431.04L324.079 431.309C323.442 431.385 322.798 431.253 322.243 430.933C321.782 430.668 321.4 430.286 321.134 429.826C320.868 429.366 320.729 428.844 320.729 428.313C320.729 427.175 321.363 426.23 322.296 425.757H347.135C347.609 425.994 348.007 426.36 348.284 426.811C348.561 427.263 348.706 427.783 348.703 428.313C348.692 429.409 348.112 430.418 347.178 430.944ZM329.556 389.686C329.556 391.053 330.099 392.364 331.066 393.331C332.033 394.298 333.344 394.841 334.711 394.841C336.078 394.841 337.389 394.298 338.356 393.331C339.323 392.364 339.866 391.053 339.866 389.686C339.866 388.319 339.323 387.008 338.356 386.041C337.389 385.074 336.078 384.531 334.711 384.531C333.344 384.531 332.033 385.074 331.066 386.041C330.099 387.008 329.556 388.319 329.556 389.686Z" fill="white"/>
</g>
</g>
<defs>
<clipPath id="clip0_13_28">
<rect width="1129" height="663" fill="white"/>
</clipPath>
</defs>
</svg>
