<svg width="1042" height="555" viewBox="0 0 1042 555" fill="none" xmlns="http://www.w3.org/2000/svg">
<g clip-path="url(#clip0_12_43)">
<path d="M978.469 507.175C977.309 509.675 976.153 512.142 974.999 514.575C973.199 518.355 971.423 522.062 969.669 525.695C968.889 527.305 968.109 528.885 967.349 530.465C958.749 548.035 950.719 563.575 943.899 576.355C937.711 587.935 928.522 597.638 917.296 604.446C906.069 611.255 893.218 614.919 880.089 615.055L728.439 616.705H726.839L713.839 616.845L702.719 616.965L668.619 617.335H667.239L649.879 617.525H649.349L542.349 618.685L446.839 619.685L435.729 619.805L366.729 620.555H366.649L321.899 621.035H321.419L179.919 622.565L137.589 623.025C133.985 623.066 130.381 622.886 126.799 622.485C125.579 622.345 124.359 622.185 123.149 621.995C103.407 618.948 85.3054 609.228 71.8593 594.455C53.6493 574.425 40.3992 551.055 31.4992 525.695C30.2126 522.035 29.0126 518.328 27.8992 514.575C-2.91075 410.425 34.6493 276.055 102.249 186.135C105.083 182.375 107.963 178.708 110.889 175.135L110.959 175.055C131.749 149.535 155.059 128.215 179.889 113.055C223.889 86.1451 272.639 78.5651 320.589 101.155C361.159 120.275 399.039 129.265 435.759 131.705C439.469 131.945 443.179 132.125 446.869 132.235C531.099 134.885 610.039 104.535 702.739 84.9451C706.429 84.1651 710.129 83.3951 713.859 82.6651C779.989 69.5051 853.349 62.5651 940.589 77.1551C949.653 78.6358 958.596 80.7747 967.349 83.5551C971.196 84.7951 974.903 86.1284 978.469 87.5551C1020.11 104.495 1042.82 135.795 1052.47 175.015C1053.38 178.655 1054.17 182.358 1054.84 186.125C1071.95 280.465 1021.84 414.285 978.469 507.175Z" fill="#F2F2F2"/>
<path opacity="0.1" d="M514.009 514.575C513.606 518.315 512.982 522.029 512.139 525.695H605.839V514.575H514.009ZM435.759 577.385L446.869 577.295V549.825C443.059 549.655 439.349 549.485 435.759 549.305V577.385ZM202.839 514.575V525.695H401.339V514.575H202.839ZM1052.52 175.055H978.519V87.5651C974.953 86.1184 971.246 84.7851 967.399 83.5651V175.055H713.859V82.6351C710.129 83.3651 706.429 84.1351 702.739 84.9151V175.055H446.869V132.205C443.179 132.095 439.469 131.915 435.759 131.675V175.055H179.889V113.055C155.059 128.215 131.749 149.535 110.959 175.055H110.889V175.135C107.956 178.735 105.076 182.402 102.249 186.135H110.889V514.575H27.8892C28.9959 518.328 30.1959 522.035 31.4892 525.695H110.879V619.315C114.874 620.537 118.951 621.469 123.079 622.105C124.289 622.295 125.509 622.455 126.729 622.595C130.311 622.996 133.915 623.176 137.519 623.135L179.849 622.675V525.675H435.759V619.885L446.869 619.765V525.695H702.739V617.055L713.859 616.935V525.695H967.349V530.465C968.109 528.885 968.889 527.305 969.669 525.695C971.423 522.062 973.199 518.355 974.999 514.575C976.153 512.148 977.309 509.682 978.469 507.175V186.175H1054.89C1054.22 182.382 1053.43 178.675 1052.52 175.055ZM179.889 514.575V186.135H435.759V514.575H179.889ZM446.889 514.575V186.135H702.739V514.575H446.889ZM967.369 514.575H713.859V186.135H967.349L967.369 514.575Z" fill="black"/>
<path d="M313.089 552.625V577.115C313.09 578.275 312.761 579.411 312.142 580.392C311.522 581.373 310.637 582.157 309.589 582.655C308.809 583.033 307.956 583.238 307.089 583.255L272.189 583.995C271.257 584.017 270.333 583.822 269.489 583.425C268.423 582.936 267.52 582.152 266.887 581.164C266.254 580.177 265.918 579.028 265.919 577.855V552.625H313.089Z" fill="#3F3D56"/>
<path opacity="0.1" d="M313.089 552.625V577.115C313.09 578.275 312.761 579.411 312.142 580.392C311.522 581.373 310.637 582.157 309.589 582.655C308.809 583.033 307.956 583.238 307.089 583.255L272.189 583.995C271.257 584.017 270.333 583.822 269.489 583.425C268.423 582.936 267.52 582.152 266.887 581.164C266.254 580.177 265.918 579.028 265.919 577.855V552.625H313.089Z" fill="black"/>
<path d="M315.089 552.625V577.115C315.09 578.275 314.761 579.411 314.142 580.392C313.522 581.373 312.637 582.157 311.589 582.655C310.809 583.033 309.956 583.238 309.089 583.255L274.189 583.995C273.257 584.017 272.333 583.822 271.489 583.425C270.423 582.936 269.52 582.152 268.887 581.164C268.254 580.177 267.918 579.028 267.919 577.855V552.625H315.089Z" fill="#3F3D56"/>
<path d="M745.079 552.615H697.909V584.115H745.079V552.615Z" fill="#3F3D56"/>
<path opacity="0.1" d="M745.079 552.615H697.909V584.115H745.079V552.615Z" fill="black"/>
<path d="M743.079 552.615H695.909V584.115H743.079V552.615Z" fill="#3F3D56"/>
<path opacity="0.1" d="M315.079 552.615V557.585L267.909 558.845V552.615H315.079Z" fill="black"/>
<path d="M398.339 381.325V549.525C398.327 550.552 397.921 551.535 397.204 552.27C396.487 553.005 395.515 553.437 394.489 553.475L202.839 558.575H202.789C201.746 558.562 200.748 558.142 200.01 557.404C199.273 556.666 198.852 555.669 198.839 554.625V381.325C198.852 380.282 199.273 379.284 200.01 378.546C200.748 377.808 201.746 377.388 202.789 377.375H394.389C395.433 377.388 396.43 377.808 397.168 378.546C397.906 379.284 398.326 380.282 398.339 381.325Z" fill="#65617D"/>
<path opacity="0.1" d="M202.839 377.375V558.575H202.789C201.746 558.562 200.748 558.142 200.01 557.404C199.273 556.666 198.852 555.669 198.839 554.625V381.325C198.852 380.282 199.273 379.284 200.01 378.546C200.748 377.808 201.746 377.388 202.789 377.375H202.839Z" fill="black"/>
<path d="M211.579 388.115H389.079V536.365L211.579 540.365V388.115Z" fill="#39374D"/>
<path opacity="0.1" d="M743.079 552.615V559.025L695.909 557.765V552.615H743.079Z" fill="black"/>
<path d="M805.339 381.325V554.625C805.326 555.677 804.899 556.682 804.15 557.421C803.401 558.161 802.391 558.575 801.339 558.575L609.649 553.475C608.623 553.437 607.651 553.005 606.935 552.27C606.218 551.535 605.811 550.552 605.799 549.525V381.325C605.812 380.282 606.233 379.284 606.971 378.546C607.708 377.808 608.706 377.388 609.749 377.375H801.349C802.4 377.378 803.407 377.793 804.154 378.532C804.9 379.272 805.326 380.275 805.339 381.325Z" fill="#65617D"/>
<path opacity="0.1" d="M805.339 381.325V554.625C805.326 555.677 804.899 556.682 804.15 557.421C803.401 558.161 802.391 558.575 801.339 558.575V377.375C802.391 377.375 803.401 377.79 804.15 378.529C804.899 379.268 805.326 380.273 805.339 381.325Z" fill="black"/>
<path d="M792.579 388.115H615.079V536.365L792.579 540.365V388.115Z" fill="#39374D"/>
<path d="M600.839 381.325V549.525C600.827 550.552 600.421 551.535 599.704 552.27C598.987 553.005 598.015 553.437 596.989 553.475L405.339 558.575C404.287 558.575 403.277 558.161 402.528 557.421C401.78 556.682 401.352 555.677 401.339 554.625V381.325C401.352 380.282 401.773 379.284 402.51 378.546C403.248 377.808 404.246 377.388 405.289 377.375H596.889C597.933 377.388 598.93 377.808 599.668 378.546C600.406 379.284 600.826 380.282 600.839 381.325Z" fill="#65617D"/>
<path d="M414.079 388.115H591.579V536.365L414.079 540.365V388.115Z" fill="#4267B2"/>
<path d="M504.249 418.445C532.598 418.445 555.579 395.464 555.579 367.115C555.579 338.766 532.598 315.785 504.249 315.785C475.9 315.785 452.919 338.766 452.919 367.115C452.919 395.464 475.9 418.445 504.249 418.445Z" fill="#FBBEBE"/>
<path d="M555.589 446.125C555.589 446.125 456.089 458.125 465.589 446.125C469.029 441.785 469.979 428.925 469.789 414.275C469.729 409.825 469.569 405.215 469.339 400.625C468.239 378.625 465.589 357.125 465.589 357.125C465.589 357.125 552.589 316.125 542.589 348.625C538.589 361.755 539.899 380.195 542.939 397.505C543.829 402.555 544.859 407.505 545.939 412.205C548.575 423.669 551.796 434.99 555.589 446.125Z" fill="#FBBEBE"/>
<path d="M523.119 442.055C534.629 439.925 546.819 436.055 557.649 440.515C560.499 441.685 563.119 443.395 566.039 444.375C568.959 445.355 572.159 445.595 575.199 446.285C585.879 448.705 594.539 456.835 600.099 466.285C605.659 475.735 608.539 486.425 611.359 497.005L618.259 522.835C624.259 545.285 630.259 567.925 631.649 591.135C548.116 595.917 464.392 596.394 380.809 592.565C386.249 582.225 391.809 571.255 391.349 559.565C390.889 547.875 384.159 536.345 386.589 524.825C388.139 517.485 393.159 511.435 396.229 504.605C404.979 485.085 398.169 458.815 413.549 443.955C420.469 437.275 430.549 434.745 440.179 435.065C452.459 435.475 465.029 439.305 477.179 441.175C492.739 443.535 507.439 444.935 523.119 442.055Z" fill="#3574F0"/>
<path opacity="0.1" d="M654.019 553.225L653.919 554.655V554.755L653.749 557.055L652.419 575.565L650.809 597.865L650.349 604.145L649.349 617.585V617.755L542.349 618.755L366.759 620.655V621.495H366.619V620.375L367.069 606.015L367.929 577.955L368.669 554.165L368.739 551.795C368.783 550.365 369.118 548.958 369.723 547.661C370.329 546.365 371.193 545.205 372.261 544.253C373.33 543.301 374.582 542.578 375.94 542.126C377.298 541.674 378.733 541.504 380.159 541.625C384.879 542.025 391.009 542.515 398.339 543.035L401.339 543.255C443.669 546.195 521.899 549.995 600.839 545.255C602.499 545.165 604.169 545.065 605.839 544.945C618.079 544.175 630.309 543.185 642.419 541.945C643.95 541.785 645.498 541.962 646.953 542.464C648.408 542.966 649.735 543.782 650.841 544.852C651.947 545.923 652.804 547.223 653.354 548.661C653.903 550.099 654.13 551.64 654.019 553.175V553.225Z" fill="black"/>
<path d="M366.729 621.495V620.655L542.349 618.745L649.349 617.745H649.649V617.575L650.649 604.135L651.079 598.135L652.719 575.525L654.009 557.625V557.185C654.069 556.36 654.032 555.531 653.899 554.715C653.905 554.682 653.905 554.648 653.899 554.615C653.625 552.927 652.938 551.334 651.899 549.975C650.798 548.563 649.355 547.455 647.707 546.755C646.059 546.055 644.26 545.787 642.479 545.975C630.369 547.215 618.139 548.205 605.899 548.975C604.229 549.095 602.559 549.195 600.899 549.285C521.959 553.975 443.729 550.175 401.399 547.285L398.399 547.065C391.069 546.545 384.939 546.065 380.219 545.655C377.623 545.436 375.037 546.186 372.961 547.762C370.886 549.337 369.467 551.625 368.979 554.185C368.878 554.726 368.818 555.275 368.799 555.825L368.119 577.985L367.189 606.055L366.749 620.415V621.535L366.729 621.495Z" fill="#3F3D56"/>
<path opacity="0.1" d="M654.319 560.235L653.089 575.565L651.259 598.415L650.799 604.135L649.799 616.945L649.739 617.585V617.755L649.589 619.235L649.699 617.755H649.409L542.409 618.755L366.759 620.655V620.375L367.249 606.015L368.249 577.955L368.889 559.305C368.921 558.244 369.217 557.208 369.752 556.291C370.286 555.374 371.042 554.605 371.949 554.055C373.082 553.361 374.406 553.046 375.729 553.155C377.829 553.325 380.409 553.525 383.419 553.745C388.309 554.105 394.339 554.525 401.359 554.965C414.359 555.785 430.669 556.665 449.359 557.385C501.359 559.385 571.559 560.055 638.239 554.215C641.239 553.955 644.339 553.665 647.369 553.375C648.569 553.256 649.777 553.485 650.849 554.035C651.153 554.186 651.441 554.367 651.709 554.575C652.58 555.206 653.269 556.054 653.709 557.035C653.811 557.23 653.895 557.435 653.959 557.645C654.26 558.474 654.382 559.356 654.319 560.235Z" fill="black"/>
<path d="M471.779 382.845C471.859 389.845 468.619 396.445 465.869 402.915C455.857 426.483 451.52 452.074 453.209 477.625C453.939 488.625 455.789 499.625 453.939 510.525C452.089 521.425 445.509 532.295 434.939 535.425C452.469 545.875 476.199 544.775 492.699 532.765C501.489 526.365 508.039 517.435 514.449 508.655C513.688 524.427 509.121 539.781 501.139 553.405C515.567 552.128 529.566 547.834 542.229 540.802C554.893 533.77 565.938 524.157 574.649 512.585C578.959 506.775 582.709 500.395 584.369 493.355C587.459 480.355 583.149 466.845 579.859 453.855C577.11 442.996 575.049 431.974 573.689 420.855C573.259 417.295 572.909 413.635 573.789 410.155C574.789 406.085 577.459 402.645 579.429 398.935C585.029 388.395 585.159 375.635 582.289 364.055C579.419 352.475 573.799 341.795 568.229 331.245C563.769 322.785 558.929 313.935 550.769 308.965C545.669 305.865 539.769 304.575 533.889 303.325L508.519 297.895C502.969 296.705 497.259 295.515 491.649 296.385C482.179 297.865 475.509 304.705 469.649 311.725C465.059 317.185 453.839 327.435 453.049 334.585C452.329 341.175 458.149 352.215 459.139 359.165C460.439 368.165 461.359 365.165 466.439 370.685C469.649 374.105 471.719 378.055 471.779 382.845Z" fill="#3F3D56"/>
<path d="M343.735 467.722L343.216 467.861C342.683 468.004 342.367 468.553 342.51 469.086L342.649 469.605C342.792 470.138 343.34 470.455 343.874 470.312L344.392 470.173C344.926 470.03 345.242 469.481 345.099 468.948L344.96 468.429C344.817 467.896 344.269 467.579 343.735 467.722Z" fill="#4A4A4A"/>
<path d="M746.968 464.739C746.968 458.912 739.668 453.389 728.481 449.964C731.063 438.564 729.915 429.487 724.859 426.582C723.634 425.896 722.247 425.551 720.843 425.582V429.582C721.553 429.56 722.257 429.72 722.887 430.048C725.326 431.448 726.387 436.772 725.559 443.622C725.359 445.307 725.039 447.083 724.645 448.894C720.897 447.991 717.094 447.338 713.259 446.94C710.975 443.789 708.483 440.794 705.8 437.975C711.645 432.542 717.132 429.565 720.862 429.565V425.56C715.931 425.56 709.476 429.074 702.949 435.171C696.422 429.11 689.967 425.632 685.036 425.632V429.632C688.748 429.632 694.252 432.591 700.098 437.988C697.428 440.797 694.954 443.787 692.693 446.935C688.852 447.329 685.043 447.988 681.293 448.907C680.881 447.114 680.576 445.375 680.361 443.707C679.518 436.857 680.561 431.532 682.979 430.115C683.612 429.777 684.325 429.616 685.041 429.649V425.649C683.626 425.618 682.228 425.963 680.989 426.649C675.95 429.549 674.821 438.609 677.421 449.977C666.268 453.42 659.006 458.924 659.006 464.734C659.006 470.562 666.306 476.084 677.493 479.509C674.911 490.909 676.059 499.986 681.115 502.891C682.346 503.579 683.739 503.925 685.149 503.891C690.08 503.891 696.535 500.377 703.062 494.28C709.589 500.341 716.044 503.819 720.975 503.819C722.391 503.85 723.789 503.505 725.027 502.819C730.066 499.919 731.195 490.859 728.595 479.491C739.706 476.071 746.968 470.548 746.968 464.739ZM723.622 452.779C722.959 455.092 722.134 457.479 721.201 459.862C720.466 458.428 719.695 456.993 718.852 455.562C718.027 454.128 717.152 452.729 716.27 451.362C718.817 451.739 721.273 452.205 723.622 452.779ZM715.41 471.879C714.01 474.3 712.577 476.595 711.089 478.729C708.417 478.962 705.71 479.088 702.989 479.088C700.281 479.088 697.574 478.962 694.92 478.747C693.432 476.614 691.986 474.342 690.581 471.933C689.219 469.584 687.975 467.206 686.851 464.797C687.963 462.397 689.218 459.992 690.563 457.643C691.963 455.222 693.396 452.927 694.884 450.793C697.556 450.56 700.263 450.434 702.984 450.434C705.692 450.434 708.399 450.56 711.053 450.775C712.541 452.908 713.988 455.18 715.392 457.589C716.755 459.938 717.998 462.316 719.122 464.725C717.992 467.124 716.755 469.526 715.41 471.875V471.879ZM721.202 469.548C722.17 471.948 722.995 474.353 723.676 476.684C721.327 477.258 718.853 477.742 716.289 478.118C717.168 476.737 718.046 475.318 718.871 473.868C719.7 472.431 720.467 470.979 721.2 469.544L721.202 469.548ZM703.02 488.676C701.261 486.85 699.597 484.935 698.035 482.938C699.649 483.01 701.298 483.064 702.966 483.064C704.651 483.064 706.319 483.028 707.951 482.938C706.412 484.938 704.766 486.854 703.02 488.676ZM689.68 478.115C687.134 477.738 684.68 477.272 682.328 476.698C682.991 474.385 683.816 471.998 684.749 469.615C685.484 471.049 686.255 472.484 687.098 473.915C687.941 475.346 688.8 476.752 689.68 478.115ZM702.93 440.801C704.689 442.627 706.353 444.542 707.915 446.539C706.301 446.467 704.652 446.413 702.984 446.413C701.298 446.413 699.631 446.449 697.999 446.539C699.538 444.539 701.184 442.623 702.93 440.801ZM689.662 451.36C688.783 452.741 687.905 454.16 687.08 455.61C686.255 457.044 685.48 458.479 684.749 459.91C683.781 457.51 682.956 455.105 682.275 452.774C684.623 452.223 687.1 451.739 689.662 451.36ZM673.435 473.809C667.087 471.101 662.981 467.551 662.981 464.736C662.981 461.921 667.087 458.353 673.435 455.663C674.977 455 676.663 454.408 678.402 453.852C679.499 457.579 680.847 461.227 682.436 464.772C680.864 468.299 679.534 471.93 678.455 475.638C676.68 475.085 674.994 474.475 673.434 473.812L673.435 473.809ZM683.082 499.432C680.643 498.032 679.582 492.708 680.41 485.858C680.61 484.172 680.93 482.397 681.324 480.586C685.072 481.489 688.876 482.142 692.71 482.54C694.994 485.691 697.486 488.686 700.169 491.505C694.324 496.938 688.837 499.915 685.107 499.915C684.403 499.924 683.707 499.759 683.081 499.435L683.082 499.432ZM725.614 485.769C726.457 492.619 725.414 497.944 722.996 499.361C722.363 499.699 721.651 499.86 720.934 499.827C717.222 499.827 711.718 496.868 705.872 491.471C708.542 488.662 711.017 485.672 713.277 482.524C717.118 482.13 720.927 481.471 724.677 480.552C725.081 482.274 725.393 484.017 725.613 485.772L725.614 485.769ZM732.514 473.809C730.972 474.472 729.286 475.064 727.547 475.62C726.45 471.893 725.103 468.245 723.513 464.7C725.086 461.173 726.416 457.542 727.494 453.834C729.269 454.39 730.955 454.999 732.533 455.663C738.881 458.371 742.987 461.921 742.987 464.736C742.97 467.554 738.864 471.122 732.516 473.812L732.514 473.809Z" fill="#61DAFB"/>
<path d="M702.966 472.932C707.492 472.932 711.16 469.263 711.16 464.738C711.16 460.213 707.492 456.544 702.966 456.544C698.441 456.544 694.772 460.213 694.772 464.738C694.772 469.263 698.441 472.932 702.966 472.932Z" fill="#61DAFB"/>
<g clip-path="url(#clip1_12_43)">
<path d="M299 500C318.882 500 335 483.882 335 464C335 444.118 318.882 428 299 428C279.118 428 263 444.118 263 464C263 483.882 279.118 500 299 500Z" fill="#3574F0"/>
<path d="M309.146 470.219C309.146 466.795 307.139 463.838 304.237 462.46V457.373C304.237 456.91 304.074 456.462 303.774 456.109L299.098 450.565C298.901 450.331 298.622 450.215 298.346 450.215C298.07 450.215 297.791 450.331 297.594 450.565L292.918 456.109C292.62 456.462 292.456 456.91 292.455 457.373V462.46C289.552 463.838 287.546 466.795 287.546 470.219H292.348C292.277 470.44 292.24 470.68 292.24 470.95C292.24 471.628 292.473 472.29 292.897 472.815C293.242 473.244 293.7 473.569 294.219 473.754C294.928 475.411 296.539 476.478 298.346 476.478C299.239 476.478 300.104 476.215 300.843 475.718C301.567 475.233 302.129 474.555 302.47 473.754C302.988 473.57 303.446 473.246 303.792 472.818C304.216 472.289 304.447 471.631 304.449 470.953C304.449 470.695 304.415 470.45 304.353 470.222H309.146V470.219ZM306.026 466.703C306.314 467.151 306.547 467.633 306.716 468.133H304.114V464.78C304.88 465.279 305.531 465.935 306.026 466.703ZM294.541 462.46V457.419L298.346 452.909L302.15 457.419V468.133H294.541V462.46ZM289.976 468.133C290.145 467.633 290.378 467.151 290.666 466.703C291.166 465.93 291.817 465.277 292.578 464.78V468.133H289.976ZM301.908 471.698C301.749 471.79 301.564 471.827 301.383 471.803L300.785 471.729L300.699 472.324C300.534 473.487 299.521 474.365 298.346 474.365C297.171 474.365 296.158 473.487 295.993 472.324L295.907 471.726L295.308 471.803C295.127 471.824 294.942 471.787 294.784 471.695C294.517 471.542 294.351 471.256 294.351 470.947C294.351 470.621 294.532 470.351 294.799 470.216H301.896C302.166 470.354 302.344 470.624 302.344 470.947C302.341 471.26 302.175 471.548 301.908 471.698ZM296.873 459.91C296.873 460.301 297.028 460.675 297.305 460.952C297.581 461.228 297.955 461.383 298.346 461.383C298.736 461.383 299.111 461.228 299.387 460.952C299.663 460.675 299.819 460.301 299.819 459.91C299.819 459.52 299.663 459.145 299.387 458.869C299.111 458.593 298.736 458.438 298.346 458.438C297.955 458.438 297.581 458.593 297.305 458.869C297.028 459.145 296.873 459.52 296.873 459.91Z" fill="white"/>
</g>
</g>
<defs>
<clipPath id="clip0_12_43">
<rect width="1041.28" height="554.141" fill="white"/>
</clipPath>
<clipPath id="clip1_12_43">
<rect width="72" height="72" fill="white" transform="translate(263 428)"/>
</clipPath>
</defs>
</svg>
